<mxfile host="app.diagrams.net" modified="2020-11-29T07:30:10.664Z" agent="5.0 (Macintosh)" etag="k4jXB8LHaDJeGj40qnfL" version="13.10.4" type="github">
  <diagram id="O9iF1o3NCsZEDvzOvpK_" name="Page-1">
    <mxGraphModel dx="1104" dy="845" grid="1" gridSize="10" guides="1" tooltips="1" connect="1" arrows="1" fold="1" page="1" pageScale="1" pageWidth="827" pageHeight="1169" math="0" shadow="0">
      <root>
        <mxCell id="0" />
        <mxCell id="1" parent="0" />
      </root>
    </mxGraphModel>
  </diagram>
</mxfile>
